<?xml version="1.0" encoding="utf-8"?>
<!-- Generator: Adobe Illustrator 18.0.0, SVG Export Plug-In . SVG Version: 6.00 Build 0)  -->
<!DOCTYPE svg PUBLIC "-//W3C//DTD SVG 1.1//EN" "http://www.w3.org/Graphics/SVG/1.1/DTD/svg11.dtd">
<svg version="1.1" id="Layer_1" xmlns="http://www.w3.org/2000/svg" xmlns:xlink="http://www.w3.org/1999/xlink" x="0px" y="0px"
	 width="800px" height="600px" viewBox="0 0 800 600" enable-background="new 0 0 800 600" xml:space="preserve">
<g>
	<rect fill="#FFFFFF" width="800" height="600"/>
	<g>
		<g>
			<path fill="#D5D8DA" d="M444.6,228.7l-12.7-35l-40.9,9.1c-6.2-9.6-13.9-17.9-22.6-24.8l13.2-39.7l-33.8-15.7l-22.5,35.3
				c-10.9-2.3-22.2-2.8-33.5-1.5L273.1,119l-35,12.7l9.1,40.9c-9.6,6.2-17.9,13.9-24.8,22.6L182.7,182L167,215.8l35.3,22.5
				c-2.3,10.9-2.8,22.2-1.5,33.5l-37.4,18.7l12.7,35l40.9-9.1c6.2,9.6,13.9,17.9,22.6,24.8l-13.2,39.7l33.8,15.7l22.5-35.3
				c10.9,2.3,22.2,2.8,33.5,1.5l18.7,37.4l35-12.7l-9.1-40.9c9.6-6.2,17.9-13.9,24.8-22.6l39.7,13.2l15.7-33.8l-35.3-22.5
				c2.3-10.9,2.8-22.2,1.5-33.5L444.6,228.7z M324.2,315.1c-30.7,11.2-64.6-4.7-75.8-35.3c-11.2-30.7,4.7-64.6,35.3-75.8
				c30.7-11.2,64.6,4.7,75.8,35.3C370.7,270,354.9,304,324.2,315.1z"/>
			<path fill="#D5D8DA" d="M636.6,305.5l-5.7-15.6l-18.2,4c-2.8-4.3-6.2-8-10.1-11l5.9-17.7l-15-7l-10,15.7c-4.8-1-9.9-1.3-14.9-0.7
				l-8.3-16.7l-15.6,5.7l4,18.2c-4.3,2.8-8,6.2-11,10.1l-17.7-5.9l-7,15l15.7,10c-1,4.8-1.3,9.9-0.7,14.9l-16.7,8.3l5.7,15.6l18.2-4
				c2.8,4.3,6.2,8,10.1,11l-5.9,17.7l15,7l10-15.7c4.8,1,9.9,1.3,14.9,0.7l8.3,16.7l15.6-5.7l-4-18.2c4.3-2.8,8-6.2,11-10.1
				l17.7,5.9l7-15l-15.7-10c1-4.8,1.3-9.9,0.7-14.9L636.6,305.5z M583,344c-13.7,5-28.8-2.1-33.8-15.7c-5-13.7,2.1-28.8,15.7-33.8
				c13.7-5,28.8,2.1,33.8,15.7C603.7,323.9,596.7,339.1,583,344z"/>
			<path fill="#D5D8DA" d="M519.7,400.2c0-5.3-0.7-10.4-2.1-15.3l21.3-15.8l-10.6-18.3L503.8,361c-7.1-7.3-16.2-12.7-26.5-15.3
				l-3-26.4h-21.1l-3.5,26.4c-10.2,2.6-19.3,8-26.5,15.3l-24.4-10.6l-10.6,18.3l21.1,16.2c-1.4,4.9-2.1,10-2.1,15.3
				c0,5.3,0.7,10.4,2.1,15.3l-21.3,15.8l10.6,18.3l24.6-10.2c7.1,7.3,16.2,12.7,26.5,15.3l3,26.4h21.1l3.5-26.4
				c10.2-2.6,19.3-8,26.5-15.3l24.4,10.6l10.6-18.3l-21.1-16.2C519,410.6,519.7,405.5,519.7,400.2z M463.5,430.8
				c-16.9,0-30.7-13.7-30.7-30.7c0-16.9,13.7-30.7,30.7-30.7c16.9,0,30.7,13.7,30.7,30.7C494.2,417.1,480.4,430.8,463.5,430.8z"/>
		</g>
		<g>
			<circle fill="#89D3E2" cx="268" cy="188.1" r="27.1"/>
			<g>
				<circle fill="#3B97D3" cx="268" cy="200.9" r="4.5"/>
				<g>
					<path fill="#3B97D3" d="M260.8,195l-1.3-1.3c-0.8-0.8-0.7-2.2,0.2-2.9c2.4-1.7,5.2-2.7,8.3-2.7c3,0,5.9,0.9,8.3,2.7
						c0.9,0.7,1,2,0.2,2.9l-1.3,1.3c-0.7,0.7-1.7,0.7-2.4,0.2c-1.4-0.9-3-1.4-4.7-1.4c-1.7,0-3.3,0.5-4.7,1.4
						C262.5,195.7,261.5,195.7,260.8,195z"/>
				</g>
				<g>
					<path fill="#3B97D3" d="M255.6,188.6l-1.3-1.3c-0.8-0.8-0.7-2.1,0.2-2.8c7.8-6.4,19.1-6.4,26.9,0c0.9,0.7,1,2,0.2,2.8l-1.3,1.3
						c-0.7,0.7-1.8,0.8-2.5,0.2c-5.7-4.6-14-4.6-19.7,0C257.4,189.3,256.3,189.2,255.6,188.6z"/>
				</g>
				<g>
					<path fill="#3B97D3" d="M250.4,181.7l-1.3-1.3c-0.8-0.8-0.7-2,0.1-2.8c5.2-4.5,11.8-7,18.7-7c7,0,13.5,2.5,18.7,7
						c0.8,0.7,0.8,2,0.1,2.8l-1.3,1.3c-0.7,0.7-1.8,0.7-2.6,0.1c-4.2-3.6-9.4-5.5-14.9-5.5s-10.8,1.9-14.9,5.5
						C252.3,182.5,251.2,182.4,250.4,181.7z"/>
				</g>
			</g>
		</g>
		<g>
			<circle fill="#89D3E2" cx="345.1" cy="122.7" r="27.1"/>
			<g>
				<path fill="#F29C1F" d="M340.3,113.4h20.1c2.3,0,4.1,1.8,4.1,4.1v11c0,2.3-1.8,4.1-4.1,4.1H359v3.4c0,0.9-1.1,1.4-1.7,0.7
					l-4.4-4.2h-12.6c-2.3,0-4.1-1.8-4.1-4.1v-11C336.2,115.3,338,113.4,340.3,113.4z"/>
				<path fill="#F0C419" d="M349.9,108.4h-20.1c-2.3,0-4.1,1.8-4.1,4.1v11c0,2.3,1.8,4.1,4.1,4.1h1.4v3.4c0,0.9,1.1,1.4,1.7,0.7
					l4.4-4.2h12.6c2.3,0,4.1-1.8,4.1-4.1v-11C354,110.2,352.2,108.4,349.9,108.4z"/>
				<g>
					<path fill="#ECF0F1" d="M330.3,113.4L330.3,113.4c0,0.5,0.4,0.9,0.9,0.9h17.3c0.5,0,0.9-0.4,0.9-0.9v0c0-0.5-0.4-0.9-0.9-0.9
						h-17.3C330.7,112.6,330.3,112.9,330.3,113.4z"/>
					<path fill="#ECF0F1" d="M330.3,118.1L330.3,118.1c0,0.5,0.4,0.9,0.9,0.9h17.3c0.5,0,0.9-0.4,0.9-0.9l0,0c0-0.5-0.4-0.9-0.9-0.9
						h-17.3C330.7,117.3,330.3,117.7,330.3,118.1z"/>
					<path fill="#ECF0F1" d="M330.3,122.9L330.3,122.9c0,0.5,0.4,0.9,0.9,0.9h17.3c0.5,0,0.9-0.4,0.9-0.9l0,0c0-0.5-0.4-0.9-0.9-0.9
						h-17.3C330.7,122,330.3,122.4,330.3,122.9z"/>
				</g>
			</g>
		</g>
		<g>
			<circle fill="#89D3E2" cx="556.6" cy="188.1" r="27.1"/>
			<g>
				<g>
					<path fill="#F0C419" d="M546.9,170.2v35.8c0,0.8,0.7,1.5,1.5,1.5l0,0c0.8,0,1.5-0.7,1.5-1.5v-35.8c0-0.8-0.7-1.5-1.5-1.5l0,0
						C547.5,168.7,546.9,169.4,546.9,170.2z"/>
					<path fill="#F0C419" d="M552.4,170.2v35.8c0,0.8,0.7,1.5,1.5,1.5l0,0c0.8,0,1.5-0.7,1.5-1.5v-35.8c0-0.8-0.7-1.5-1.5-1.5l0,0
						C553,168.7,552.4,169.4,552.4,170.2z"/>
					<path fill="#F0C419" d="M557.9,170.2v35.8c0,0.8,0.7,1.5,1.5,1.5l0,0c0.8,0,1.5-0.7,1.5-1.5v-35.8c0-0.8-0.7-1.5-1.5-1.5l0,0
						C558.5,168.7,557.9,169.4,557.9,170.2z"/>
					<path fill="#F0C419" d="M563.4,170.2v35.8c0,0.8,0.7,1.5,1.5,1.5l0,0c0.8,0,1.5-0.7,1.5-1.5v-35.8c0-0.8-0.7-1.5-1.5-1.5l0,0
						C564,168.7,563.4,169.4,563.4,170.2z"/>
				</g>
				<g>
					<path fill="#F0C419" d="M574.5,178.4h-35.8c-0.8,0-1.5,0.7-1.5,1.5l0,0c0,0.8,0.7,1.5,1.5,1.5h35.8c0.8,0,1.5-0.7,1.5-1.5l0,0
						C575.9,179,575.3,178.4,574.5,178.4z"/>
					<path fill="#F0C419" d="M574.5,183.8h-35.8c-0.8,0-1.5,0.7-1.5,1.5l0,0c0,0.8,0.7,1.5,1.5,1.5h35.8c0.8,0,1.5-0.7,1.5-1.5l0,0
						C575.9,184.5,575.3,183.8,574.5,183.8z"/>
					<path fill="#F0C419" d="M574.5,189.3h-35.8c-0.8,0-1.5,0.7-1.5,1.5l0,0c0,0.8,0.7,1.5,1.5,1.5h35.8c0.8,0,1.5-0.7,1.5-1.5l0,0
						C575.9,190,575.3,189.3,574.5,189.3z"/>
					<path fill="#F0C419" d="M574.5,194.8h-35.8c-0.8,0-1.5,0.7-1.5,1.5l0,0c0,0.8,0.7,1.5,1.5,1.5h35.8c0.8,0,1.5-0.7,1.5-1.5l0,0
						C575.9,195.5,575.3,194.8,574.5,194.8z"/>
				</g>
				<path fill="#2F2F39" d="M542.1,178.8v18.6c0,2.9,2.3,5.2,5.2,5.2h18.6c2.9,0,5.2-2.3,5.2-5.2v-18.6c0-2.9-2.3-5.2-5.2-5.2h-18.6
					C544.4,173.5,542.1,175.9,542.1,178.8z"/>
				<path fill="#4C4952" d="M548.7,183.3v9.4c0,1.7,1.4,3.1,3.1,3.1h9.4c1.7,0,3.1-1.4,3.1-3.1v-9.4c0-1.7-1.4-3.1-3.1-3.1h-9.4
					C550.1,180.2,548.7,181.6,548.7,183.3z"/>
			</g>
		</g>
		<g>
			<circle opacity="0.75" fill="#89D3E2" cx="583.7" cy="271.9" r="27.1"/>
			<g>
				<circle fill="#BDC3C7" cx="583.7" cy="286.9" r="4.2"/>
				<path fill="#2F2F39" d="M577.6,285.8v2c0,0.8,0.7,1.5,1.5,1.5h9.2c0.8,0,1.5-0.7,1.5-1.5v-2c0-0.7-0.6-1.3-1.3-1.3h-9.6
					C578.2,284.5,577.6,285,577.6,285.8z"/>
				<path fill="#F0C419" d="M598.1,267.2c0-8.5-7.3-15.2-16-14.3c-6.7,0.7-12.1,6.2-12.7,12.9c-0.4,5,1.7,9.5,5.1,12.4
					c1.1,0.9,1.8,2.2,1.8,3.7v0.6c0,1.1,0.9,2,2,2h10.8c1.1,0,2-0.9,2-2v-0.6c0-1.4,0.7-2.8,1.8-3.7
					C596.1,275.6,598.1,271.6,598.1,267.2z"/>
				
					<ellipse transform="matrix(0.7071 -0.7071 0.7071 0.7071 -15.2815 484.2669)" fill="#F6D87F" cx="576.9" cy="260.6" rx="4.9" ry="1.9"/>
			</g>
		</g>
		<g>
			<circle fill="#89D3E2" cx="478.6" cy="98.3" r="27.1"/>
			<g>
				<path fill="#3B97D3" d="M497.7,94.2l-1.7-4.8l-5.6,1.2c-0.8-1.3-1.9-2.4-3.1-3.4l1.8-5.4l-4.6-2.2l-3.1,4.8
					c-1.5-0.3-3-0.4-4.5-0.2l-2.5-5.1l-4.8,1.7l1.2,5.6c-1.3,0.8-2.4,1.9-3.4,3.1l-5.4-1.8l-2.2,4.6l4.8,3.1c-0.3,1.5-0.4,3-0.2,4.5
					l-5.1,2.5l1.7,4.8l5.6-1.2c0.8,1.3,1.9,2.4,3.1,3.4l-1.8,5.4l4.6,2.2l3.1-4.8c1.5,0.3,3,0.4,4.5,0.2l2.5,5.1l4.8-1.7l-1.2-5.6
					c1.3-0.8,2.4-1.9,3.4-3.1l5.4,1.8l2.2-4.6l-4.8-3.1c0.3-1.5,0.4-3,0.2-4.5L497.7,94.2z"/>
				<circle fill="#2980BA" cx="478.6" cy="98.3" r="10.7"/>
				<circle fill="#ECF0F1" cx="478.6" cy="98.3" r="4.2"/>
			</g>
		</g>
		<ellipse fill="#BDC3C7" cx="400" cy="521.4" rx="330" ry="8.6"/>
		<g>
			<g>
				<g>
					<path fill="#662D91" d="M476.4,525c0,0-4.9-140.5,82.1-216c0,0,33,120.6-31.5,216H476.4z"/>
					<path fill="#92278F" d="M565.9,408.2c0.1-0.7,0.1-1.5,0.2-2.2l-40.1,17c2.2-9.4,4.5-18.8,7-28.3l33.8-20.5c0-0.8,0-1.5-0.1-2.3
						l-33,20c2.3-8.8,4.7-17.6,7.2-26.3l23.9-20.7c-0.1-0.8-0.2-1.6-0.3-2.4L542,362c5.4-18.4,11.1-35.8,17.1-50.8
						c-0.3-1.4-0.6-2.2-0.6-2.2c-0.4,0.3-0.7,0.6-1.1,1c-4.2,10.4-8.2,22-12.1,34.2l-2.9-19.3c-0.6,0.6-1.2,1.3-1.7,1.9l3.3,21.7
						c-2.9,9.2-5.6,18.8-8.3,28.5l-9.2-32.1c-0.5,0.7-1,1.4-1.5,2.1l9.6,33.7c-2.6,9.5-5,19.1-7.4,28.6l-17.2-36.8
						c-0.4,0.8-0.8,1.5-1.1,2.3l17.6,37.6c-2.6,10.7-5.1,21.3-7.3,31.5l-21.9-41.7c-0.3,0.9-0.6,1.7-0.9,2.6l22.2,42.2
						c-2,9-3.8,17.7-5.5,25.9l-27.5-30.3c-0.2,0.8-0.4,1.6-0.5,2.4l27.5,30.4c-1.9,9.4-3.7,18.1-5.2,25.9l-28.5-19.3
						c-0.1,0.8-0.2,1.5-0.3,2.2l28.3,19.1c-1.7,8.6-3,16.1-4.1,21.8h2c0.5-2.9,1.1-6.1,1.8-9.7l29-4.2c0.4-0.7,0.8-1.5,1.2-2.2
						l-29.9,4.3c1.5-7.7,3.2-16.9,5.3-27.1l36.8-3.1c0.3-0.7,0.5-1.4,0.8-2.1l-37.2,3.1c1.5-7.5,3.2-15.4,4.9-23.8l42.8-14.6
						c0.2-0.8,0.3-1.5,0.5-2.3L518.1,458c2.3-10.5,4.7-21.5,7.4-32.7L565.9,408.2z"/>
				</g>
				<g>
					<path fill="#EE2A7B" d="M508.4,525H558c67.2-43.2,80.5-169.7,80.5-169.7C517.1,397.6,508.4,525,508.4,525z"/>
					<path fill="#92278F" d="M634.3,381.8c0.2-0.9,0.3-1.7,0.5-2.5l-22.6,11.9c8.9-12.7,17.8-24.3,26.2-33.9c0.2-1.3,0.2-2,0.2-2
						c-0.6,0.2-1.1,0.4-1.7,0.6c-7.2,8.3-14.8,18-22.5,28.7l3.7-20.9c-0.7,0.4-1.5,0.7-2.2,1.1l-4.2,23.6
						c-4.1,5.8-8.2,11.7-12.3,17.9l-2.6-30.6c-0.6,0.4-1.3,0.8-1.9,1.2l2.7,32.1c-6.2,9.4-12.4,19.1-18.4,28.8l-9.2-41
						c-0.6,0.5-1.1,1.1-1.7,1.6l9.3,41.8c-5,8.1-9.8,16.1-14.4,23.9l-15.9-41.2c-0.5,0.6-0.9,1.3-1.4,1.9l16,41.5
						c-5,8.5-9.8,16.7-14.1,24.4l-18.9-36.8c-0.4,0.8-0.7,1.5-1.1,2.3l18.8,36.7c-5.9,10.3-11,19.5-15,26.9l-12.9-40.9
						c-0.4,1.1-0.7,2.2-1.1,3.2l12.7,40.2c-0.6,1.1-1.1,2.1-1.7,3.1h2.3c2.4-4.4,5.3-9.7,8.6-15.7H577c0.6-0.7,1.3-1.3,1.9-2h-38.2
						c2.2-4,4.6-8.2,7.1-12.7l0.1,0.2l1.8-0.9l-0.7-1.4c2.5-4.3,5.1-8.9,7.8-13.6l40.6,3.7c0.4-0.6,0.8-1.3,1.2-1.9l-40.7-3.7
						c4.7-8.1,9.8-16.7,15-25.4l38.5,4.1c0.3-0.6,0.6-1.3,0.8-1.9l-38.2-4.1c5.5-9.1,11.3-18.4,17.1-27.5l33.7-2.9
						c0.2-0.7,0.4-1.4,0.6-2.1l-32.9,2.8c5.6-8.8,11.4-17.4,17.1-25.6L634.3,381.8z"/>
				</g>
			</g>
			<g>
				<g>
					<path fill="#662D91" d="M323.6,525c0,0,4.9-140.5-82.1-216c0,0-33,120.6,31.5,216H323.6z"/>
					<path fill="#92278F" d="M234.1,408.2c-0.1-0.7-0.1-1.5-0.2-2.2l40.1,17c-2.2-9.4-4.5-18.8-7-28.3l-33.8-20.5
						c0-0.8,0-1.5,0.1-2.3l33,20c-2.3-8.8-4.7-17.6-7.2-26.3l-23.9-20.7c0.1-0.8,0.2-1.6,0.3-2.4L258,362
						c-5.4-18.4-11.1-35.8-17.1-50.8c0.3-1.4,0.6-2.2,0.6-2.2c0.4,0.3,0.7,0.6,1.1,1c4.2,10.4,8.2,22,12.1,34.2l2.9-19.3
						c0.6,0.6,1.2,1.3,1.7,1.9l-3.3,21.7c2.9,9.2,5.6,18.8,8.3,28.5l9.2-32.1c0.5,0.7,1,1.4,1.5,2.1l-9.6,33.7
						c2.6,9.5,5,19.1,7.4,28.6l17.2-36.8c0.4,0.8,0.8,1.5,1.1,2.3l-17.6,37.6c2.6,10.7,5.1,21.3,7.3,31.5l21.9-41.7
						c0.3,0.9,0.6,1.7,0.9,2.6l-22.2,42.2c2,9,3.8,17.7,5.5,25.9l27.5-30.3c0.2,0.8,0.4,1.6,0.5,2.4l-27.5,30.4
						c1.9,9.4,3.7,18.1,5.2,25.9l28.5-19.3c0.1,0.8,0.2,1.5,0.3,2.2l-28.3,19.1c1.7,8.6,3,16.1,4.1,21.8h-2
						c-0.5-2.9-1.1-6.1-1.8-9.7l-29-4.2c-0.4-0.7-0.8-1.5-1.2-2.2l29.9,4.3c-1.5-7.7-3.2-16.9-5.3-27.1l-36.8-3.1
						c-0.3-0.7-0.5-1.4-0.8-2.1l37.2,3.1c-1.5-7.5-3.2-15.4-4.9-23.8l-42.8-14.6c-0.2-0.8-0.3-1.5-0.5-2.3l42.8,14.6
						c-2.3-10.5-4.7-21.5-7.4-32.7L234.1,408.2z"/>
				</g>
				<g>
					<path fill="#EE2A7B" d="M291.6,525H242c-67.2-43.2-80.5-169.7-80.5-169.7C282.9,397.6,291.6,525,291.6,525z"/>
					<path fill="#92278F" d="M165.7,381.8c-0.2-0.9-0.3-1.7-0.5-2.5l22.6,11.9c-8.9-12.7-17.8-24.3-26.2-33.9c-0.2-1.3-0.2-2-0.2-2
						c0.6,0.2,1.1,0.4,1.7,0.6c7.2,8.3,14.8,18,22.5,28.7l-3.7-20.9c0.7,0.4,1.5,0.7,2.2,1.1l4.2,23.6c4.1,5.8,8.2,11.7,12.3,17.9
						l2.6-30.6c0.6,0.4,1.3,0.8,1.9,1.2l-2.7,32.1c6.2,9.4,12.4,19.1,18.4,28.8l9.2-41c0.6,0.5,1.1,1.1,1.7,1.6l-9.3,41.8
						c5,8.1,9.8,16.1,14.4,23.9l15.9-41.2c0.5,0.6,0.9,1.3,1.4,1.9l-16,41.5c5,8.5,9.8,16.7,14.1,24.4l18.9-36.8
						c0.4,0.8,0.7,1.5,1.1,2.3l-18.8,36.7c5.9,10.3,11,19.5,15,26.9l12.9-40.9c0.4,1.1,0.7,2.2,1.1,3.2l-12.7,40.2
						c0.6,1.1,1.1,2.1,1.7,3.1H269c-2.4-4.4-5.3-9.7-8.6-15.7H223c-0.6-0.7-1.3-1.3-1.9-2h38.2c-2.2-4-4.6-8.2-7.1-12.7l-0.1,0.2
						l-1.8-0.9l0.7-1.4c-2.5-4.3-5.1-8.9-7.8-13.6l-40.6,3.7c-0.4-0.6-0.8-1.3-1.2-1.9l40.7-3.7c-4.7-8.1-9.8-16.7-15-25.4
						l-38.5,4.1c-0.3-0.6-0.6-1.3-0.8-1.9l38.2-4.1c-5.5-9.1-11.3-18.4-17.1-27.5l-33.7-2.9c-0.2-0.7-0.4-1.4-0.6-2.1l32.9,2.8
						c-5.6-8.8-11.4-17.4-17.1-25.6L165.7,381.8z"/>
				</g>
			</g>
		</g>
		<g>
			<g>
				<g>
					<path fill="#89D3E2" d="M412.8,194.4c0,0,5.4-3.4,11.7-1.2c6.2,2.2,5.2,5.7,5.2,5.7s6.1-1.9,11,2.5c4.9,4.4,3.5,9.5,3.5,9.5
						s6.2-0.5,9.9,5.9c3.7,6.4,0,11.7,0,11.7s6-1.8,8.4,5.2c2.4,7,0,11.7,0,11.7s5.5,2.4,4.3,8.1c-1.1,5.7-6.5,8.1-6.5,8.1
						s-0.2,6.9-9.5,8.5c-9.3,1.6-11.1-3.5-11.1-3.5s-4.4,6.2-12.5,6.2c-8.1,0-9.1-3.8-9.1-3.8s-4.8,5.4-9.2,3.5c-4.5-2-5-8.2-5-8.2
						s-5.4-1-5.4-10.1s3-12.5,3-12.5s-3-2.4-3-9.3c0-6.9,2.7-10.2,2.7-10.2s-2.7-3-2.7-6.4s2.7-8.1,2.7-8.1S394.9,192.5,412.8,194.4
						z"/>
					<path fill="#35C2D6" d="M397.3,232.3c0,5.1,1.6,8.1,2.7,9.4c-1,1.7-2.7,5.5-2.7,12.4c0,7.8,3.7,10.3,5.5,11.1
						c0.3,2,1.6,6.6,5.6,8.4c0.8,0.4,1.7,0.5,2.6,0.5c2.9,0,5.4-1.8,6.9-3.1c1.2,1.4,3.9,3,9.4,3.1c6.2,0,10.4-3.3,12.4-5.3
						c1.2,1.3,3.5,2.9,7.7,2.9c1.1,0,2.4-0.1,3.7-0.3c8.3-1.5,10.1-6.9,10.5-9c1.6-0.9,5.5-3.6,6.6-8.7c0.9-4.5-1.8-7.6-4-9
						c0.6-2,1.5-6.1-0.4-11.5c-1.8-5.1-5.2-6.2-7.4-6.3c0.9-2.4,1.5-6.3-1.1-10.8c-2.9-5-7.2-6.2-9.6-6.5c0.1-2.1-0.4-5.8-4.1-9.2
						c-3-2.7-6.4-3.3-8.7-3.3c-0.7,0-1.4,0.1-1.9,0.1c-0.4-1.6-1.7-3.8-6-5.4c-1.5-0.5-3.2-0.8-4.8-0.8c-3.7,0-6.6,1.3-7.6,1.9
						c-6.1-0.6-10.2,0.7-12.2,3.8c-2.5,3.7-1,8.8-0.4,10.6c-0.7,1.4-2.6,5.2-2.6,8.2c0,2.8,1.5,5.2,2.4,6.5
						C398.8,223.7,397.3,227,397.3,232.3z M400,215.7c0-2.5,1.8-6.2,2.5-7.4c0,0,0,0,0,0c0.1-0.2,0.1-0.3,0.2-0.5
						c0.1-0.5,0.7-5.1,7.2-5.1c0,0,0,0,0,0c0.7,0,1.3-0.6,1.3-1.3c0-0.7-0.6-1.4-1.3-1.4c0,0,0,0,0,0c-4.2,0-6.8,1.6-8.2,3.5
						c-0.2-1.7-0.1-3.6,0.9-5.1c1.5-2.2,4.9-3.1,10-2.6c3.1,1.1,4.3,4,4,6.5c-0.2,1.5-0.9,3.1-2.5,3.9c-0.9,0.1-1.6,0.4-1.8,0.5
						c-0.6,0.3-0.9,1-0.7,1.6c0.2,0.6,0.8,1,1.4,0.9c0.5-0.1,1-0.2,1.5-0.3c0.2,0,0.4,0.1,0.5,0.2c0.5,0.3,1.3,1.2,1.5,4.2
						c0.5,6.6-4.2,8.5-4.2,8.5c-0.5,0.2-0.8,0.7-0.8,1.2c0,0.5,0.3,1,0.8,1.3c0,0,3.6,1.6,4.6,4.2c0.3,0.9,0.3,1.9-0.2,2.9
						c-2.3,4.9-7.1,6.2-7.1,6.2c-0.7,0.2-1.2,0.9-1,1.6c0.2,0.6,0.7,1,1.3,1c0.1,0,0.2,0,0.3,0c0.2-0.1,6.1-1.6,8.9-7.6
						c0.8-1.7,0.9-3.4,0.3-5c-0.8-2-2.5-3.6-4-4.5c1.9-1.5,4.2-4.5,3.8-9.9c-0.2-2.7-0.9-4.7-2.1-5.8c1.1-1.2,1.9-2.8,2.1-4.6
						c0.3-2.7-0.7-5.9-3.3-7.9c1.1-0.4,2.6-0.7,4.3-0.7c1.3,0,2.7,0.2,3.9,0.7c3.3,1.1,4.1,2.6,4.3,3.4c-3,1-7,3.9-6.3,10.2
						c0.1,0.7,0.7,1.2,1.3,1.2c0.1,0,0.1,0,0.2,0c0.7-0.1,1.3-0.8,1.2-1.5c-0.7-6.2,4.6-7.4,5.2-7.5c0,0,0,0,0.1,0c0,0,0.1,0,0.1,0
						c0,0,1.2-0.4,2.8-0.4c1.8,0,4.5,0.4,6.9,2.6c3.1,2.8,3.3,5.8,3.2,7.3c-1.1,0.2-2.8,0.6-4.2,1.9c-1.1-0.2-3.9-1.3-4.7-6
						c-0.1-0.7-0.8-1.2-1.5-1.1c-0.7,0.1-1.2,0.8-1.1,1.5c0.8,4.9,3.4,7.1,5.7,7.9c-0.5,1.1-0.8,2.3-0.8,3.7c-1.6-0.2-4-0.2-6.1,1.1
						c-0.7,0.5-1.4,1.1-1.9,1.8c-0.6-0.3-1.3-0.9-1.7-1.9c-0.6-1.7,0.2-4,2.2-6.9c0.4-0.6,0.3-1.5-0.3-1.9s-1.5-0.3-1.9,0.3
						c-2.6,3.7-3.4,6.8-2.5,9.4c0.6,1.7,1.9,2.8,3,3.3c-0.2,0.6-0.4,1.3-0.5,2c-1,6,1.6,9.9,4,11.9c-1.5,1.5-2.9,4-2.7,7.1
						c-1.4-0.4-3.2-0.7-5-0.2c-0.9-1.9-2.2-6.6,1.6-12.4c0.4-0.6,0.2-1.5-0.4-1.9c-0.6-0.4-1.5-0.2-1.9,0.4
						c-4.5,6.9-2.9,12.6-1.8,15c-1.1,0.8-2.1,1.9-2.9,3.3c-2-1.4-6-3.8-10.1-3.3c-2.7,0.3-5.1,1.9-6.8,4.6c-0.4,0.6-0.2,1.5,0.4,1.9
						c0.2,0.2,0.5,0.2,0.7,0.2c0.4,0,0.9-0.2,1.1-0.6c1.4-2,3-3.1,4.9-3.4c4.5-0.6,9.3,3.6,9.3,3.7c0.3,0.3,0.8,0.4,1.2,0.3
						c0.4-0.1,0.8-0.4,0.9-0.8c1.1-2.4,2.5-3.9,4.2-4.4c2.2-0.7,4.5,0.4,5.3,0.9c0.7,1.7,1.8,2.9,3.4,3.6c1.2,0.5,2.5,0.7,3.6,0.7
						c2.5,0,4.7-0.8,4.8-0.9c0.7-0.3,1-1.1,0.8-1.7c-0.3-0.7-1.1-1-1.7-0.8c0,0-3.7,1.4-6.4,0.2c-1-0.5-1.8-1.3-2.2-2.6
						c-1.9-5.2,2.4-7.9,2.6-8c0.4-0.3,0.7-0.7,0.6-1.2c0-0.5-0.3-0.9-0.8-1.2c-0.2-0.1-5.4-2.7-4.2-10.1c0.3-2.1,1.1-3.5,2.4-4.3
						c2.1-1.3,5-0.7,5.6-0.5c2.8,1.6,5.5,3.8,5.6,4.6c0,0.7,0.5,1.4,1.3,1.4c0,0,0,0,0.1,0c0.7,0,1.3-0.6,1.3-1.3
						c0.1-2.5-4-5.3-6.4-6.8c-0.1-2,0.3-3.6,1.2-4.6c1.5-1.6,3.8-1.5,3.8-1.6c0,0,0,0,0.1,0c0,0,0.1,0,0.1,0c0,0,0.1,0,0.2,0
						c1.3,0,5.6,0.4,8.4,5.2c3.2,5.6,0.1,10.2,0.1,10.2c0,0.1-0.1,0.1-0.1,0.2c0,0,0,0.1-0.1,0.1c0,0-1.6,3.7-5,4.6
						c-2.6,0.7-5.7-0.3-9.2-3.1c-0.6-0.5-1.4-0.3-1.9,0.2c-0.5,0.6-0.3,1.4,0.2,1.9c3.3,2.5,6.4,3.8,9.2,3.8c0.8,0,1.6-0.1,2.3-0.3
						c3.7-1,5.8-4.1,6.5-5.5c0.2,0,0.5-0.1,0.8-0.1c2.5,0,4.4,1.5,5.4,4.5c1.5,4.4,1,7.7,0.5,9.4c-2.1-0.9-6-2-9.5,0.2
						c-1.9-1.4-7-3.6-15.9,0.5c-0.7,0.3-1,1.1-0.7,1.8c0.2,0.5,0.7,0.8,1.2,0.8c0.2,0,0.4,0,0.6-0.1c6.9-3.2,10.9-2,12.6-1.1
						c-2.1,2.4-2.5,5.2-2.5,7.2c-1.6-0.4-4-0.4-7.1,0.9c-5.2,2.1-5.4,7.2-4.9,9.7c0.1,0.6,0.7,1,1.3,1c0.1,0,0.2,0,0.3,0
						c0.7-0.2,1.2-0.9,1-1.6c0-0.2-1-4.8,3.3-6.5c4.5-1.9,6.7-0.3,6.8-0.2c0.5,0.3,1.1,0.4,1.6,0.1c0.5-0.3,0.7-0.9,0.6-1.4
						c0-0.2-1.2-5.1,2.6-8.1c3.7-3,8.7,0.1,8.8,0.1c0,0,0.1,0,0.1,0c0,0,0,0,0.1,0.1c0.2,0.1,4.5,2.1,3.6,6.6
						c-0.6,2.9-2.4,4.8-3.8,5.9c-0.2-2.6-1-6.5-4.1-9.8c-0.5-0.5-1.4-0.6-1.9-0.1c-0.5,0.5-0.6,1.4-0.1,1.9c4,4.3,3.4,10.2,3.4,10.3
						c0,0,0,0,0,0c0,0,0,0,0,0.1c0,0.2-0.4,5.8-8.4,7.2c-1.2,0.2-2.2,0.3-3.2,0.3c-5.2,0-6.3-2.8-6.3-2.9c-0.2-0.5-0.6-0.8-1.1-0.9
						c-0.5-0.1-1,0.1-1.3,0.6c0,0.1-4.1,5.6-11.3,5.6c-6.5,0-7.8-2.6-7.9-2.9c-0.2-0.8-1.8-9.4,6-11.4c0.7-0.2,1.2-0.9,1-1.6
						c-0.2-0.7-0.9-1.2-1.6-1c-8,2-8.8,9.7-8.1,14c-1,0.9-3.3,3-5.7,3c-0.5,0-1-0.1-1.5-0.3c-3.7-1.6-4.1-7-4.2-7.1c0,0,0,0,0,0
						c0,0,0,0,0,0c0-0.1-0.2-2.6,1.5-4.5c1.5-1.6,3.9-2.4,7.3-2.4c0.7,0,1.3-0.6,1.3-1.3s-0.6-1.3-1.3-1.3c-4.2,0-7.3,1.1-9.3,3.3
						c-1.3,1.4-1.8,3-2.1,4.3c-1.2-1-2.8-3.2-2.8-8c0-8.4,2.7-11.6,2.7-11.6c0,0,0,0,0,0c0.1-0.1,0.2-0.3,0.2-0.4c2.6-8,7-9,7.2-9
						c0.7-0.1,1.2-0.8,1.1-1.6c-0.1-0.7-0.8-1.2-1.5-1.1c-0.2,0-5.2,1-8.4,8.5c-0.6-1.3-1.3-3.4-1.3-6.5c0-5,1.5-7.9,2.1-9
						c4.3-0.6,8.3-5.5,8.8-6.1c0.5-0.6,0.4-1.4-0.2-1.9c-0.6-0.5-1.4-0.4-1.9,0.2c-1.1,1.3-4.2,4.5-6.9,5.1
						C401.3,219.7,400,217.7,400,215.7z"/>
				</g>
				<g>
					<path fill="#89D3E2" d="M387.2,194.4c0,0-5.4-3.4-11.7-1.2c-6.2,2.2-5.2,5.7-5.2,5.7s-6.1-1.9-11,2.5c-4.9,4.4-3.5,9.5-3.5,9.5
						s-6.2-0.5-9.9,5.9c-3.7,6.4,0,11.7,0,11.7s-6-1.8-8.4,5.2c-2.4,7,0,11.7,0,11.7s-5.5,2.4-4.3,8.1c1.1,5.7,6.5,8.1,6.5,8.1
						s0.2,6.9,9.5,8.5c9.3,1.6,11.1-3.5,11.1-3.5s4.4,6.2,12.5,6.2c8.1,0,9.1-3.8,9.1-3.8s4.8,5.4,9.2,3.5c4.5-2,5-8.2,5-8.2
						s5.4-1,5.4-10.1s-3-12.5-3-12.5s3-2.4,3-9.3c0-6.9-2.7-10.2-2.7-10.2s2.7-3,2.7-6.4s-2.7-8.1-2.7-8.1S405.1,192.5,387.2,194.4z
						"/>
					<path fill="#35C2D6" d="M400.3,222.1c0.9-1.2,2.4-3.7,2.4-6.5c0-3-1.8-6.8-2.6-8.2c0.6-1.8,2.1-6.9-0.4-10.6
						c-2.1-3.1-6.2-4.4-12.2-3.8c-1.1-0.6-3.9-1.9-7.6-1.9c-1.7,0-3.3,0.3-4.8,0.8c-4.3,1.5-5.7,3.7-6,5.4c-0.5-0.1-1.2-0.1-1.9-0.1
						c-2.3,0-5.7,0.6-8.7,3.3c-3.7,3.4-4.2,7.1-4.1,9.2c-2.3,0.3-6.7,1.4-9.6,6.5c-2.6,4.5-1.9,8.4-1.1,10.8
						c-2.2,0.1-5.7,1.2-7.4,6.3c-1.9,5.4-1.1,9.6-0.4,11.5c-2.2,1.4-4.9,4.5-4,9c1,5.1,5,7.8,6.6,8.7c0.4,2.1,2.3,7.5,10.5,9
						c1.3,0.2,2.5,0.3,3.7,0.3c4.2,0,6.6-1.6,7.7-2.9c1.9,2,6.1,5.3,12.4,5.3c5.5,0,8.1-1.7,9.4-3.1c1.5,1.3,4.1,3.1,6.9,3.1
						c0.9,0,1.8-0.2,2.6-0.5c4.1-1.8,5.3-6.4,5.6-8.4c1.8-0.8,5.5-3.3,5.5-11.1c0-6.8-1.7-10.7-2.7-12.4c1.1-1.4,2.7-4.3,2.7-9.4
						C402.7,227,401.2,223.7,400.3,222.1z M398.1,220.6c-2.7-0.5-5.8-3.8-6.9-5.1c-0.5-0.6-1.3-0.7-1.9-0.2
						c-0.6,0.5-0.7,1.3-0.2,1.9c0.5,0.6,4.5,5.4,8.8,6.1c0.6,1,2.1,4,2.1,9c0,3.1-0.7,5.2-1.3,6.5c-3.2-7.5-8.1-8.4-8.4-8.5
						c-0.7-0.1-1.4,0.4-1.5,1.1c-0.1,0.7,0.4,1.4,1.1,1.6c0.2,0,4.6,1,7.2,9c0.1,0.2,0.1,0.3,0.2,0.4c0,0,0,0,0,0
						c0,0,2.7,3.2,2.7,11.6c0,4.8-1.6,7-2.8,8c-0.2-1.3-0.8-2.9-2.1-4.3c-2-2.2-5.1-3.3-9.3-3.3c-0.7,0-1.3,0.6-1.3,1.3
						s0.6,1.3,1.3,1.3c3.3,0,5.8,0.8,7.3,2.4c1.7,1.9,1.5,4.4,1.5,4.5c0,0,0,0,0,0c0,0,0,0,0,0c0,0.1-0.5,5.4-4.2,7.1
						c-0.5,0.2-1,0.3-1.5,0.3c-2.4,0-4.8-2-5.7-3c0.7-4.3-0.1-11.9-8.1-14c-0.7-0.2-1.5,0.3-1.6,1c-0.2,0.7,0.3,1.5,1,1.6
						c7.8,2,6.2,10.7,6,11.4c-0.1,0.3-1.3,2.8-7.9,2.9c-7.2,0-11.3-5.6-11.3-5.6c-0.3-0.4-0.8-0.6-1.3-0.6c-0.5,0.1-0.9,0.4-1.1,0.9
						c0,0-1.1,2.9-6.3,2.9c-1,0-2.1-0.1-3.2-0.3c-8-1.4-8.4-7-8.4-7.2c0,0,0,0,0-0.1c0,0,0,0,0,0c0-0.1-0.7-6,3.4-10.3
						c0.5-0.5,0.5-1.4-0.1-1.9c-0.5-0.5-1.4-0.5-1.9,0.1c-3.1,3.3-3.9,7.3-4.1,9.8c-1.4-1.1-3.2-3-3.8-5.9c-0.9-4.5,3.4-6.5,3.6-6.6
						c0,0,0,0,0.1-0.1c0,0,0.1,0,0.1,0c0,0,5.1-3.1,8.8-0.1c3.7,3,2.6,7.9,2.6,8.1c-0.1,0.6,0.1,1.1,0.6,1.4
						c0.5,0.3,1.1,0.3,1.6-0.1c0.1-0.1,2.3-1.7,6.8,0.2c4.3,1.8,3.3,6.4,3.3,6.5c-0.2,0.7,0.3,1.5,1,1.6c0.1,0,0.2,0,0.3,0
						c0.6,0,1.2-0.4,1.3-1c0.6-2.4,0.3-7.5-4.9-9.7c-3.1-1.3-5.5-1.2-7.1-0.9c0-2-0.4-4.8-2.5-7.2c1.7-1,5.7-2.1,12.6,1.1
						c0.2,0.1,0.4,0.1,0.6,0.1c0.5,0,1-0.3,1.2-0.8c0.3-0.7,0-1.5-0.7-1.8c-8.9-4.1-14-1.8-15.9-0.5c-3.6-2.2-7.5-1.1-9.5-0.2
						c-0.5-1.7-1-5,0.5-9.4c1-3,2.8-4.5,5.4-4.5c0.3,0,0.6,0,0.8,0.1c0.7,1.4,2.8,4.5,6.5,5.5c0.8,0.2,1.5,0.3,2.3,0.3
						c2.9,0,6-1.3,9.2-3.8c0.6-0.5,0.7-1.3,0.2-1.9c-0.5-0.6-1.3-0.7-1.9-0.2c-3.5,2.7-6.6,3.7-9.2,3.1c-3.4-0.9-5-4.6-5-4.6
						c0,0,0-0.1-0.1-0.1c0-0.1,0-0.1-0.1-0.2c0,0-3.2-4.6,0.1-10.2c2.8-4.8,7.1-5.2,8.4-5.2c0.1,0,0.2,0,0.2,0c0,0,0.1,0,0.1,0
						c0,0,0,0,0.1,0c0,0,2.4,0,3.8,1.6c1,1,1.3,2.6,1.2,4.6c-2.4,1.4-6.6,4.2-6.4,6.8c0,0.7,0.6,1.3,1.3,1.3c0,0,0,0,0.1,0
						c0.7,0,1.3-0.7,1.3-1.4c0.1-0.8,2.7-3,5.6-4.6c0.6-0.2,3.5-0.8,5.6,0.5c1.3,0.8,2.1,2.3,2.4,4.3c1.2,7.4-4,10-4.2,10.1
						c-0.4,0.2-0.7,0.7-0.8,1.2c0,0.5,0.2,1,0.6,1.2c0.2,0.1,4.4,2.8,2.6,8c-0.4,1.2-1.2,2.1-2.2,2.6c-2.6,1.2-6.3-0.2-6.4-0.2
						c-0.7-0.3-1.5,0.1-1.7,0.8c-0.3,0.7,0.1,1.5,0.8,1.7c0.1,0.1,2.3,0.9,4.8,0.9c1.2,0,2.5-0.2,3.6-0.7c1.6-0.7,2.7-1.9,3.4-3.6
						c0.8-0.4,3.1-1.5,5.3-0.9c1.7,0.5,3.1,2,4.2,4.4c0.2,0.4,0.5,0.7,0.9,0.8c0.4,0.1,0.9,0,1.2-0.3c0,0,4.8-4.2,9.3-3.7
						c2,0.3,3.6,1.4,4.9,3.4c0.3,0.4,0.7,0.6,1.1,0.6c0.3,0,0.5-0.1,0.7-0.2c0.6-0.4,0.8-1.3,0.4-1.9c-1.8-2.7-4.1-4.2-6.8-4.6
						c-4.1-0.5-8,1.8-10.1,3.3c-0.8-1.4-1.8-2.5-2.9-3.3c1.1-2.4,2.7-8.1-1.8-15c-0.4-0.6-1.2-0.8-1.9-0.4c-0.6,0.4-0.8,1.2-0.4,1.9
						c3.8,5.8,2.5,10.5,1.6,12.4c-1.9-0.5-3.6-0.2-5,0.2c0.2-3.2-1.2-5.6-2.7-7.1c2.4-1.9,5-5.9,4-11.9c-0.1-0.7-0.3-1.4-0.5-2
						c1-0.6,2.3-1.6,3-3.3c0.9-2.6,0.1-5.7-2.5-9.4c-0.4-0.6-1.3-0.8-1.9-0.3s-0.8,1.3-0.3,1.9c2,2.9,2.8,5.2,2.2,6.9
						c-0.3,1-1.1,1.5-1.7,1.9c-0.5-0.7-1.2-1.3-1.9-1.8c-2.1-1.3-4.5-1.3-6.1-1.1c0-1.4-0.3-2.6-0.8-3.7c2.2-0.8,4.9-3.1,5.7-7.9
						c0.1-0.7-0.4-1.4-1.1-1.5c-0.7-0.1-1.4,0.4-1.5,1.1c-0.8,4.8-3.5,5.8-4.7,6c-1.4-1.3-3.1-1.7-4.2-1.9c-0.1-1.5,0.2-4.5,3.2-7.3
						c2.3-2.1,5-2.6,6.9-2.6c1.6,0,2.8,0.3,2.8,0.4c0,0,0.1,0,0.1,0c0,0,0,0,0.1,0c0.6,0.1,5.9,1.3,5.2,7.5
						c-0.1,0.7,0.4,1.4,1.2,1.5c0.1,0,0.1,0,0.2,0c0.7,0,1.3-0.5,1.3-1.2c0.7-6.3-3.3-9.3-6.3-10.2c0.2-0.8,1-2.2,4.3-3.4
						c1.3-0.4,2.6-0.7,3.9-0.7c1.7,0,3.1,0.3,4.3,0.7c-2.6,2-3.6,5.3-3.3,7.9c0.2,1.9,0.9,3.5,2.1,4.6c-1.2,1.1-1.9,3.1-2.1,5.8
						c-0.4,5.3,1.9,8.4,3.8,9.9c-1.4,0.9-3.2,2.5-4,4.5c-0.6,1.6-0.5,3.3,0.3,5c2.9,6.1,8.7,7.6,8.9,7.6c0.1,0,0.2,0,0.3,0
						c0.6,0,1.2-0.4,1.3-1c0.2-0.7-0.3-1.5-1-1.6c0,0-4.8-1.3-7.1-6.2c-0.5-1-0.5-2-0.2-2.9c1-2.5,4.6-4.1,4.6-4.2
						c0.5-0.2,0.8-0.7,0.8-1.3c0-0.5-0.3-1-0.8-1.2c0,0-4.7-2-4.2-8.5c0.2-3,1.1-3.9,1.5-4.2c0.2-0.1,0.4-0.2,0.5-0.2
						c0.5,0.2,1,0.3,1.5,0.3c0.6,0.1,1.3-0.3,1.4-0.9c0.2-0.6-0.1-1.3-0.7-1.6c-0.1-0.1-0.8-0.4-1.8-0.5c-1.6-0.7-2.4-2.4-2.5-3.9
						c-0.3-2.4,0.9-5.3,4-6.5c5.1-0.5,8.5,0.4,10,2.6c1,1.5,1.1,3.4,0.9,5.1c-1.5-1.9-4-3.5-8.2-3.5c0,0,0,0,0,0
						c-0.7,0-1.3,0.6-1.3,1.4c0,0.7,0.6,1.3,1.3,1.3c0,0,0,0,0,0c6.5,0,7.1,4.5,7.2,5.1c0,0.2,0.1,0.4,0.2,0.5c0,0,0,0,0,0
						c0.7,1.2,2.5,5,2.5,7.4C400,217.7,398.7,219.7,398.1,220.6z"/>
				</g>
			</g>
			<rect x="262.7" y="304.4" fill="#35C2D6" width="274.7" height="220.6"/>
			<rect x="296" y="293.7" fill="#35C2D6" width="208" height="231.3"/>
			<path fill="#89D3E2" d="M254.7,312.4v50c0,4.4,3.6,8,8,8h274.7c4.4,0,8-3.6,8-8v-50c0-4.4-3.6-8-8-8H262.7
				C258.2,304.4,254.7,307.9,254.7,312.4z"/>
			<path fill="#89D3E2" d="M254.7,389.7v50c0,4.4,3.6,8,8,8h274.7c4.4,0,8-3.6,8-8v-50c0-4.4-3.6-8-8-8H262.7
				C258.2,381.7,254.7,385.3,254.7,389.7z"/>
			<path fill="#89D3E2" d="M254.7,467v50c0,4.4,3.6,8,8,8h274.7c4.4,0,8-3.6,8-8v-50c0-4.4-3.6-8-8-8H262.7
				C258.2,459,254.7,462.6,254.7,467z"/>
			<g>
				<g>
					<rect x="465" y="318" fill="#35495E" width="7" height="38.6"/>
					<rect x="478" y="318" fill="#35495E" width="7" height="38.6"/>
					<rect x="491" y="318" fill="#35495E" width="7" height="38.6"/>
					<rect x="504" y="318" fill="#35495E" width="7" height="38.6"/>
					<rect x="517" y="318" fill="#35495E" width="7" height="38.6"/>
				</g>
				<g>
					<g>
						<path fill="#FFFFFF" d="M271.1,320v7c0,1.1,0.9,2,2,2h23c1.1,0,2-0.9,2-2v-7c0-1.1-0.9-2-2-2h-23
							C272,318,271.1,318.9,271.1,320z"/>
						<path fill="#FFFFFF" d="M308.1,320v7c0,1.1,0.9,2,2,2h23c1.1,0,2-0.9,2-2v-7c0-1.1-0.9-2-2-2h-23
							C309,318,308.1,318.9,308.1,320z"/>
						<path fill="#FFFFFF" d="M345.1,320v7c0,1.1,0.9,2,2,2h23c1.1,0,2-0.9,2-2v-7c0-1.1-0.9-2-2-2h-23
							C346,318,345.1,318.9,345.1,320z"/>
					</g>
					<g>
						<circle fill="#FFFFFF" cx="278" cy="349.6" r="6.9"/>
						<circle fill="#E64C3C" cx="296.9" cy="349.6" r="6.9"/>
						<circle fill="#E57E25" cx="315.8" cy="349.6" r="6.9"/>
						<circle fill="#F0C419" cx="334.7" cy="349.6" r="6.9"/>
					</g>
				</g>
			</g>
			<g>
				<g>
					<rect x="465" y="396.2" fill="#35495E" width="7" height="38.6"/>
					<rect x="478" y="396.2" fill="#35495E" width="7" height="38.6"/>
					<rect x="491" y="396.2" fill="#35495E" width="7" height="38.6"/>
					<rect x="504" y="396.2" fill="#35495E" width="7" height="38.6"/>
					<rect x="517" y="396.2" fill="#35495E" width="7" height="38.6"/>
				</g>
				<g>
					<g>
						<path fill="#FFFFFF" d="M271.1,398.2v7c0,1.1,0.9,2,2,2h23c1.1,0,2-0.9,2-2v-7c0-1.1-0.9-2-2-2h-23
							C272,396.2,271.1,397.1,271.1,398.2z"/>
						<path fill="#FFFFFF" d="M308.1,398.2v7c0,1.1,0.9,2,2,2h23c1.1,0,2-0.9,2-2v-7c0-1.1-0.9-2-2-2h-23
							C309,396.2,308.1,397.1,308.1,398.2z"/>
						<path fill="#FFFFFF" d="M345.1,398.2v7c0,1.1,0.9,2,2,2h23c1.1,0,2-0.9,2-2v-7c0-1.1-0.9-2-2-2h-23
							C346,396.2,345.1,397.1,345.1,398.2z"/>
					</g>
					<g>
						<circle fill="#FFFFFF" cx="278" cy="427.7" r="6.9"/>
						<circle fill="#E64C3C" cx="296.9" cy="427.7" r="6.9"/>
						<circle fill="#E57E25" cx="315.8" cy="427.7" r="6.9"/>
						<circle fill="#F0C419" cx="334.7" cy="427.7" r="6.9"/>
					</g>
				</g>
			</g>
			<g>
				<g>
					<rect x="465" y="474.3" fill="#35495E" width="7" height="38.6"/>
					<rect x="478" y="474.3" fill="#35495E" width="7" height="38.6"/>
					<rect x="491" y="474.3" fill="#35495E" width="7" height="38.6"/>
					<rect x="504" y="474.3" fill="#35495E" width="7" height="38.6"/>
					<rect x="517" y="474.3" fill="#35495E" width="7" height="38.6"/>
				</g>
				<g>
					<g>
						<path fill="#FFFFFF" d="M271.1,476.3v7c0,1.1,0.9,2,2,2h23c1.1,0,2-0.9,2-2v-7c0-1.1-0.9-2-2-2h-23
							C272,474.3,271.1,475.2,271.1,476.3z"/>
						<path fill="#FFFFFF" d="M308.1,476.3v7c0,1.1,0.9,2,2,2h23c1.1,0,2-0.9,2-2v-7c0-1.1-0.9-2-2-2h-23
							C309,474.3,308.1,475.2,308.1,476.3z"/>
						<path fill="#FFFFFF" d="M345.1,476.3v7c0,1.1,0.9,2,2,2h23c1.1,0,2-0.9,2-2v-7c0-1.1-0.9-2-2-2h-23
							C346,474.3,345.1,475.2,345.1,476.3z"/>
					</g>
					<g>
						<circle fill="#FFFFFF" cx="278" cy="505.9" r="6.9"/>
						<circle fill="#E64C3C" cx="296.9" cy="505.9" r="6.9"/>
						<circle fill="#E57E25" cx="315.8" cy="505.9" r="6.9"/>
						<circle fill="#F0C419" cx="334.7" cy="505.9" r="6.9"/>
					</g>
				</g>
			</g>
			<path opacity="0.25" fill="#27AAE1" d="M296,246.4v47.3h208v-47.3c0-57.4-46.6-104-104-104h0C342.6,142.4,296,189,296,246.4z"/>
		</g>
		<g>
			<path fill="#2C3E50" d="M560.4,515.9l1.3,6.9h-24.1c0,0,2.5-5.7,14.4-6.9H560.4z"/>
			<polygon fill="#FEDDBF" points="560.4,515.9 557.4,499 548.4,499 552,515.9 			"/>
			<path fill="#2C3E50" d="M553.6,382.5c0,0,0.5,42.2,2,63.8c1.8,28,6.1,65.5,6.1,65.5h-12.8c0,0-9.9-37.4-13.4-65
				c-3.6-27.5-6.6-64.3-6.6-64.3H553.6z"/>
			<g>
				<path fill="#FEDDBF" d="M461.7,316.5l-9.4-7c0,0,0.5-4.7-2.5-8.1c-3-3.4-1.1,4.5-1.1,4.5s-8.7-9.9-10.2-6.1
					c-1.4,3.8,4.2,12.3,10.5,13.8l10.8,7.6L461.7,316.5z"/>
				<path fill="#ECF0F1" d="M531.7,315.3c-1.8-3.4-6.3-4.2-9.3-1.8c-8.2,6.7-23.5,17.9-31.6,17.3c-11.6-0.9-35.8-21.3-35.8-21.3
					l-6.1,5.8c0,0,22.5,27.8,40.9,28.5c14.2,0.6,32.8-14.1,40.5-20.9C532.5,321,533.1,317.8,531.7,315.3L531.7,315.3z"/>
			</g>
			<path fill="#2C3E50" d="M526.1,515.9v6.9h-22.8c0,0,2.5-5.7,14.4-6.9H526.1z"/>
			<polygon fill="#FEDDBF" points="526.1,515.9 526.1,499 517.1,499 517.7,515.9 			"/>
			<path fill="#35495E" d="M542.3,382.5c0,0-6.9,42.2-9.3,63.8c-3.1,28-4.1,65.5-4.1,65.5h-14.1c0,0-3.3-37.4-2-65
				c1.3-27.5,4.8-64.3,4.8-64.3H542.3z"/>
			<path fill="#FEDDBF" d="M540.3,296.4v17.5c0,2-1.6,3.6-3.6,3.6l0,0c-2,0-3.6-1.6-3.6-3.6v-17.5H540.3z"/>
			<path fill="#FEDDBF" d="M525.4,284.1c4-7.5,19.1-2.7,18.3,7.5c-0.7,10.2-11.4,17.6-17.2,11.7
				C523.3,299.9,523.4,287.9,525.4,284.1z"/>
			<path fill="#35495E" d="M524.6,284.1c-0.1-5.9,9.5-5.9,13.5-3.7c5.7,3.1,5.7,6.6,5.7,6.6s2.6,0.1,2.5,4.2s-4.4,9.7-6,9.1
				s-0.6-10.7-0.6-10.7S524.7,290,524.6,284.1z"/>
			<path fill="#35495E" d="M539.7,289.7c0,0-1,6.3-4.3,9.9c-3.2,3.6-9.5-1.3-10.8,0.9c-1.3,2.2,0.9,5.7,4.7,6
				c3.7,0.4,8.3-2.5,10.4-10.5C541.8,287.9,539.7,289.7,539.7,289.7z"/>
			<path fill="#FEDDBF" d="M573.3,310.4l-1.2-11.7c0,0-4.3-2-5.7-6.3c-1.4-4.3,4.5,1.4,4.5,1.4s-4-12.6,0-11.8c4,0.7,8.4,9.9,6.5,16
				l1,13.2L573.3,310.4z"/>
			<path fill="#ECF0F1" d="M517.5,382.5l3.4-65.9c0.2-2.7,2.4-4.8,5.1-4.7l22.3,0.4c2.7,0,4.9,2.3,4.9,5l0.3,65.3
				C553.6,382.5,531.1,392.6,517.5,382.5z"/>
			<path fill="#ECF0F1" d="M548.8,312.3c7.7,0,20.4,26.1,23.4,25.4s-2.4-38.8-2.4-38.8h8.7c0,0,12.4,45.3-0.6,51
				c-13,5.7-28-20-32.7-26.5S544.5,312.3,548.8,312.3z"/>
			<path fill="#ECF0F1" d="M521,316.5l-17.7,125.7c0,0,36.6,12.5,60.1,0l-10.1-125.1L521,316.5z"/>
		</g>
		<g>
			<circle fill="#89D3E2" cx="233.1" cy="271.9" r="27.1"/>
			<path fill="#3B97D3" d="M233.1,252.6c-10.7,0-19.4,8.7-19.4,19.4c0,10.7,8.7,19.4,19.4,19.4s19.4-8.7,19.4-19.4
				C252.5,261.3,243.8,252.6,233.1,252.6z M248.5,270h-4.8c-0.2-4.5-1.2-8.4-2.7-11.4C245,261,247.9,265.2,248.5,270z M231.2,257.3
				V270h-4.7C226.9,263.9,228.9,259.1,231.2,257.3z M231.2,273.9v12.7c-2.3-1.8-4.3-6.6-4.7-12.7H231.2z M235.1,286.6v-12.7h4.7
				C239.4,280,237.4,284.8,235.1,286.6z M235.1,270v-12.7c2.3,1.8,4.3,6.6,4.7,12.7H235.1z M225.3,258.6c-1.5,3-2.5,6.9-2.7,11.4
				h-4.8C218.4,265.2,221.3,261,225.3,258.6z M217.8,273.9h4.8c0.2,4.5,1.2,8.4,2.7,11.4C221.3,282.9,218.4,278.7,217.8,273.9z
				 M241,285.3c1.5-3,2.5-6.9,2.7-11.4h4.8C247.9,278.7,245,282.9,241,285.3z"/>
		</g>
	</g>
</g>
</svg>
